<svg width="100" height="30" viewBox="0 0 100 30" fill="none" xmlns="http://www.w3.org/2000/svg">
<path d="M38.6002 20.1501C37.9002 20.1501 37.2002 20.1501 36.4502 20.1501C36.4502 16.6001 36.4502 13.1001 36.4502 9.55005C36.9502 9.55005 37.5002 9.50005 38.0002 9.55005C38.3002 9.60005 38.5002 9.85005 38.6502 10.0501C40.0002 11.7501 41.3502 13.4501 42.7002 15.1501C42.9502 15.5001 43.2502 15.8001 43.5502 16.2001C43.5502 13.9501 43.5502 11.7501 43.5502 9.55005C44.3002 9.55005 45.0002 9.55005 45.7002 9.55005C45.7002 13.1001 45.7002 16.6001 45.7002 20.1501C45.2002 20.1501 44.6502 20.2001 44.1502 20.1001C43.8002 20.0501 43.6002 19.8001 43.4002 19.5501C41.9502 17.7501 40.5002 15.9001 39.0502 14.1001C38.9002 13.9001 38.7502 13.7501 38.5502 13.5001C38.6002 15.7501 38.6002 17.9501 38.6002 20.1501Z" fill="#07143D"/>
<path d="M77.0993 10.8501C76.8493 11.2001 76.6493 11.6001 76.3493 11.9501C76.0993 12.3001 75.7493 12.3501 75.3493 12.0501C74.6993 11.6501 73.9993 11.4001 73.1993 11.4001C71.5993 11.4001 70.5493 12.2001 70.1993 13.7501C69.9493 14.7501 70.0493 15.7501 70.4993 16.7001C71.2993 18.3501 73.2993 18.6001 74.6493 18.0501C74.7493 18.0001 74.7993 17.9001 74.7993 17.8001C74.7993 17.3501 74.7993 16.9001 74.7993 16.4001C74.4493 16.4001 74.0993 16.4001 73.7993 16.4001C73.3993 16.4001 73.2493 16.2501 73.2493 15.8501C73.2493 15.4501 73.2493 15.0501 73.2493 14.6001C73.8993 14.6001 74.4993 14.6001 75.1493 14.6001C75.7493 14.6001 76.3993 14.6001 76.9493 14.6001C77.0493 14.7501 76.9993 14.9001 76.9993 15.0001C76.9993 16.2501 76.9993 17.5001 76.9993 18.7001C76.9993 19.0001 76.8993 19.1501 76.6993 19.3001C75.4493 20.1001 74.0993 20.3001 72.6493 20.2001C71.9493 20.1501 71.2493 20.0001 70.5993 19.7001C68.2993 18.6501 67.1493 16.5001 67.4993 13.9501C67.8993 11.2001 69.8993 9.45013 72.6993 9.40013C74.0993 9.35013 75.3993 9.60013 76.5493 10.4501C76.7993 10.5501 76.9993 10.6501 77.0993 10.8501Z" fill="#07143D"/>
<path d="M65.6994 20.1503C63.3994 20.1503 61.1494 20.1503 58.8994 20.1503C58.8994 16.6003 58.8994 13.1003 58.8994 9.55029C61.1494 9.55029 63.3994 9.55029 65.6994 9.55029C65.6994 10.1503 65.6994 10.7503 65.6994 11.4503C64.2494 11.4503 62.8494 11.4503 61.3994 11.4503C61.3994 12.3003 61.3994 13.0503 61.3994 13.9003C62.4994 13.9003 63.5994 13.9003 64.6994 13.9003C64.6994 14.5503 64.6994 15.1003 64.6994 15.7503C63.5994 15.7503 62.4994 15.7503 61.3994 15.7503C61.3994 16.6003 61.3994 17.4003 61.3994 18.2503C62.8494 18.2503 64.2494 18.2503 65.7494 18.2503C65.6994 18.9003 65.6994 19.5003 65.6994 20.1503Z" fill="#07143D"/>
<path d="M48.0996 11.45C48.0996 10.8 48.0996 10.15 48.0996 9.5C50.8996 9.5 53.6996 9.5 56.5496 9.5C56.5496 10.15 56.5496 10.75 56.5496 11.4C55.5996 11.4 54.5996 11.4 53.5996 11.4C53.5996 14.3 53.5996 17.2 53.5996 20.1C52.7496 20.1 51.9496 20.1 51.0996 20.1C51.0996 17.2 51.0996 14.35 51.0996 11.45C50.0496 11.45 49.0996 11.45 48.0996 11.45Z" fill="#07143D"/>
<path d="M30.7998 9.55029C31.5998 9.55029 32.3998 9.55029 33.2498 9.55029C33.2498 13.1003 33.2498 16.6003 33.2498 20.1503C32.4498 20.1503 31.6498 20.1503 30.7998 20.1503C30.7998 16.6003 30.7998 13.1003 30.7998 9.55029Z" fill="#07143D"/>
<path d="M85.4496 15.7C85.9496 16 86.2496 16.4 86.4996 16.85C87.1496 17.9 87.7996 19 88.4496 20.05C88.3996 20.2 88.2496 20.15 88.1996 20.15C87.5996 20.15 86.9996 20.15 86.3996 20.15C85.8996 20.15 85.4996 19.95 85.2496 19.5C84.7996 18.65 84.2996 17.85 83.8496 17C83.3996 16.2 83.2996 16.15 82.2996 16.25C82.2996 17.5 82.2996 18.8 82.2996 20.1C81.4496 20.1 80.6496 20.1 79.8496 20.1C79.8496 16.6 79.8496 13.05 79.8496 9.5C79.8996 9.5 79.9496 9.45 79.9996 9.45C81.3996 9.45 82.7996 9.4 84.1996 9.5C84.6496 9.55 85.0496 9.6 85.4496 9.75C86.6496 10.15 87.3996 10.9 87.5496 12.15C87.6996 13.45 87.2496 14.55 86.1496 15.3C85.8996 15.5 85.6996 15.55 85.4496 15.7ZM83.9996 14.4C84.7496 14.2 85.1496 13.6 85.0996 12.8C85.0996 12.05 84.6496 11.6 83.8996 11.45C83.3496 11.35 82.8496 11.4 82.2996 11.4C82.2996 12.45 82.2996 13.5 82.2996 14.55C82.8996 14.55 83.4496 14.55 83.9996 14.4Z" fill="#07143D"/>
<path d="M99.9998 20.1503C99.3998 20.1503 98.7498 20.1503 98.1498 20.1503C97.6998 20.1503 97.4498 19.9003 97.2998 19.5003C97.0998 18.9503 96.8998 18.3503 96.6998 17.8003C95.3498 17.8003 93.9998 17.8003 92.6498 17.8003C92.4498 18.3003 92.2998 18.8503 92.0998 19.4003C91.8998 20.0003 91.6498 20.1503 91.0498 20.2003C90.4998 20.2003 89.8998 20.2003 89.2998 20.2003C89.6498 19.3503 89.9498 18.6003 90.2498 17.8003C91.2498 15.2003 92.2998 12.5503 93.2998 9.95029C93.3998 9.65029 93.5498 9.55029 93.8998 9.55029C94.4998 9.60029 95.0498 9.55029 95.6498 9.55029C95.8998 9.55029 96.0498 9.60029 96.0998 9.85029C97.3998 13.2003 98.6998 16.5503 99.9998 19.9003C99.9998 19.9503 100.05 20.0003 99.9998 20.1503ZM94.6498 11.8003C94.1498 13.2503 93.6998 14.6503 93.1998 16.0503C94.1998 16.0503 95.0998 16.0503 96.0998 16.0503C95.6498 14.6503 95.1498 13.2503 94.6498 11.8003Z" fill="#07143D"/>
<path d="M26.6 8.4L13.85 0.6C13.75 0.55 13.6 0.5 13.5 0.5C13.35 0.5 13.25 0.55 13.1 0.6L0.35 8.4C0.15 8.5 0 8.75 0 9V20.8C0 21.05 0.15 21.3 0.35 21.45L13.1 29.4C13.2 29.5 13.35 29.5 13.5 29.5C13.65 29.5 13.8 29.45 13.9 29.4L26.65 21.45C26.85 21.3 27 21.05 27 20.8V9C26.95 8.75 26.85 8.5 26.6 8.4ZM13.5 16.05L12.35 15.35L10.9 16.25L12.75 17.4V27.45L2.2 20.85L13.5 13.95L14.65 14.65L16.1 13.75L14.25 12.65V2.6L24.8 9.05L13.5 16.05ZM8.3 14.6L9.75 13.7L2.2 9.05L12.75 2.6V12.65L1.5 19.5V10.35L8.3 14.6ZM25.45 19.5L18.65 15.35L17.2 16.25L24.75 20.85L14.25 27.4V17.35L25.5 10.35V19.5H25.45Z" fill="url(#paint0_linear)"/>
<defs>
<linearGradient id="paint0_linear" x1="3.91485" y1="24.4931" x2="22.8419" y2="5.56605" gradientUnits="userSpaceOnUse">
<stop stop-color="#0056F5"/>
<stop offset="1" stop-color="#33CCF4"/>
</linearGradient>
</defs>
</svg>
