<?xml version="1.0" encoding="utf-8"?>
<!-- Generator: Adobe Illustrator 15.0.0, SVG Export Plug-In . SVG Version: 6.00 Build 0)  -->
<!DOCTYPE svg PUBLIC "-//W3C//DTD SVG 1.1//EN" "http://www.w3.org/Graphics/SVG/1.1/DTD/svg11.dtd">
<svg version="1.1" id="Laag_2" xmlns="http://www.w3.org/2000/svg" xmlns:xlink="http://www.w3.org/1999/xlink" x="0px" y="0px"
	 width="202px" height="46px" viewBox="0 0 202 46" enable-background="new 0 0 202 46" xml:space="preserve">
<g>
	<g>
		<g>
			<defs>
				<polygon id="SVGID_1_" points="0,23.305 22.696,46 37.139,31.558 30.949,25.367 22.696,33.619 12.38,23.305 20.633,15.052 
					14.443,8.862 				"/>
			</defs>
			<clipPath id="SVGID_2_">
				<use xlink:href="#SVGID_1_"  overflow="visible"/>
			</clipPath>
			
				<linearGradient id="SVGID_3_" gradientUnits="userSpaceOnUse" x1="-851.397" y1="-515.8604" x2="-850.9961" y2="-515.8604" gradientTransform="matrix(0 92.6262 -92.6262 0 -47763.6602 78870.6328)">
				<stop  offset="0" style="stop-color:#B5DB32"/>
				<stop  offset="1" style="stop-color:#6E861A"/>
			</linearGradient>
			<rect y="8.862" clip-path="url(#SVGID_2_)" fill="url(#SVGID_3_)" width="37.139" height="37.138"/>
		</g>
	</g>
	<g>
		<g>
			<defs>
				<polygon id="SVGID_4_" points="16.506,6.799 24.759,15.052 16.506,23.305 22.696,29.492 30.949,21.24 39.202,29.492 
					45.392,23.305 22.696,0.609 				"/>
			</defs>
			<clipPath id="SVGID_5_">
				<use xlink:href="#SVGID_4_"  overflow="visible"/>
			</clipPath>
			
				<linearGradient id="SVGID_6_" gradientUnits="userSpaceOnUse" x1="-849.1968" y1="-515.1367" x2="-848.7963" y2="-515.1367" gradientTransform="matrix(0 72.0426 -72.0426 0 -37080.8086 61178.9883)">
				<stop  offset="0" style="stop-color:#B5DB32"/>
				<stop  offset="1" style="stop-color:#6E861A"/>
			</linearGradient>
			<rect x="16.506" y="0.609" clip-path="url(#SVGID_5_)" fill="url(#SVGID_6_)" width="28.885" height="28.883"/>
		</g>
	</g>
	<path fill="#FFFFFF" d="M68.844,28.847c-3.223,0-5.721-2.524-5.721-5.802s2.498-5.775,5.721-5.775c1.746,0,3.6,0.967,4.889,2.444
		l2.472-3.009c-1.854-1.907-4.701-3.115-7.414-3.115c-5.694,0-10.02,4.082-10.02,9.508c0,5.453,4.244,9.617,9.858,9.617
		c2.74,0,5.614-1.316,7.603-3.357l-2.498-2.713C72.391,27.988,70.537,28.847,68.844,28.847 M97.318,20.25
		c0-4.162-2.793-6.526-7.709-6.526h-8.166v18.804h4.244v-5.373h4.324l2.981,5.373h4.808l-4.002-6.205
		C96.083,25.246,97.318,23.152,97.318,20.25 M89.607,23.609h-3.92v-6.368h3.92c2.338,0,3.681,1.047,3.681,3.144
		C93.289,22.533,91.945,23.609,89.607,23.609 M107.82,24.845h9.053v-3.521h-9.053v-4.083h10.074v-3.519h-14.318v18.803h14.613v-3.52
		H107.82V24.845z M122.354,17.322h5.724v15.205h4.243V17.322h5.748v-3.6h-15.715V17.322L122.354,17.322z M147.283,24.845h9.051
		v-3.521h-9.051v-4.083h10.072v-3.519h-14.316v18.803h14.611v-3.52h-10.367V24.845L147.283,24.845z M172.398,28.847
		c-3.226,0-5.724-2.524-5.724-5.802s2.498-5.775,5.724-5.775c1.746,0,3.6,0.967,4.889,2.444l2.471-3.009
		c-1.854-1.907-4.701-3.115-7.414-3.115c-5.693,0-10.018,4.082-10.018,9.508c0,5.453,4.242,9.617,9.857,9.617
		c2.739,0,5.612-1.316,7.602-3.357l-2.498-2.713C175.943,27.988,174.09,28.847,172.398,28.847 M197.756,13.723v7.844h-8.516v-7.844
		h-4.244v18.803h4.244v-7.414h8.516v7.414H202V13.723H197.756z"/>
</g>
</svg>
