<svg width="18" height="18" viewBox="0 0 18 18" fill="none" xmlns="http://www.w3.org/2000/svg">
<path d="M16.9536 16.9453H15.5623V0.527344C15.5623 0.236109 15.3262 0 15.035 0H2.96152C2.67028 0 2.43417 0.236109 2.43417 0.527344V16.9453H1.04297C0.751734 16.9453 0.515625 17.1814 0.515625 17.4727C0.515625 17.7639 0.751734 18 1.04297 18H16.9536C17.2448 18 17.4809 17.7639 17.4809 17.4727C17.4809 17.1814 17.2448 16.9453 16.9536 16.9453ZM7.20069 16.9453V13.3502H10.7958V16.9453H7.20069ZM11.8505 16.9453V12.8229C11.8505 12.5316 11.6144 12.2955 11.3231 12.2955H6.67335C6.38211 12.2955 6.146 12.5316 6.146 12.8229V16.9453H3.48886V1.05469H14.5076V16.9453H11.8505Z" fill="white"/>
<path d="M7.86552 2.33203H5.28125C4.99002 2.33203 4.75391 2.56814 4.75391 2.85938V5.44364C4.75391 5.73488 4.99002 5.97099 5.28125 5.97099H7.86552C8.15675 5.97099 8.39286 5.73488 8.39286 5.44364V2.85938C8.39286 2.56814 8.15675 2.33203 7.86552 2.33203ZM7.33817 4.9163H5.80859V3.38672H7.33817V4.9163Z" fill="white"/>
<path d="M12.7171 2.33105H10.1328C9.84158 2.33105 9.60547 2.56716 9.60547 2.8584V5.44267C9.60547 5.7339 9.84158 5.97001 10.1328 5.97001H12.7171C13.0083 5.97001 13.2444 5.7339 13.2444 5.44267V2.8584C13.2444 2.56716 13.0083 2.33105 12.7171 2.33105ZM12.1897 4.91532H10.6602V3.38574H12.1897V4.91532Z" fill="white"/>
<path d="M7.86552 7.24023H5.28125C4.99002 7.24023 4.75391 7.47634 4.75391 7.76758V10.3518C4.75391 10.6431 4.99002 10.8792 5.28125 10.8792H7.86552C8.15675 10.8792 8.39286 10.6431 8.39286 10.3518V7.76758C8.39286 7.47634 8.15675 7.24023 7.86552 7.24023ZM7.33817 9.8245H5.80859V8.29492H7.33817V9.8245Z" fill="white"/>
<path d="M12.7171 7.24023H10.1328C9.84158 7.24023 9.60547 7.47634 9.60547 7.76758V10.3518C9.60547 10.6431 9.84158 10.8792 10.1328 10.8792H12.7171C13.0083 10.8792 13.2444 10.6431 13.2444 10.3518V7.76758C13.2444 7.47634 13.0083 7.24023 12.7171 7.24023ZM12.1897 9.8245H10.6602V8.29492H12.1897V9.8245Z" fill="white"/>
</svg>
