<svg width="120" height="120" viewBox="0 0 120 120" fill="none" xmlns="http://www.w3.org/2000/svg">
<circle cx="60" cy="60" r="60" fill="#00A843"/>
<path fill-rule="evenodd" clip-rule="evenodd" d="M39.4396 38C35.3308 38 32 41.3399 32 45.4599V74.8734C32 78.9934 35.3308 82.3333 39.4396 82.3333H66.2222V79.3494H39.4396C36.9743 79.3494 34.9758 77.3454 34.9758 74.8734V45.4599C34.9758 42.9879 36.9743 40.984 39.4396 40.984H66.2222V38H39.4396ZM42.8889 53.5559H53.7778V50.4448H42.8889V53.5559ZM57.6667 60.5557H42.8889V57.4445H57.6667V60.5557ZM42.8889 67.5554H53.7778V64.4443H42.8889V67.5554ZM74 47.1917C70.5626 47.1917 67.7054 50.0022 67.7054 53.5553C67.7054 56.7197 69.9715 59.295 72.8955 59.8207C73.26 59.7923 73.6284 59.7778 74.0002 59.7778C74.3719 59.7778 74.7402 59.7923 75.1047 59.8207C78.0285 59.295 80.2946 56.7197 80.2946 53.5553C80.2946 50.0022 77.4374 47.1917 74 47.1917ZM79.6678 60.9725C81.9025 59.2603 83.3334 56.5632 83.3334 53.5553C83.3334 48.4393 79.1937 44.222 74 44.222C68.8064 44.222 64.6667 48.4393 64.6667 53.5553C64.6667 56.5632 66.0976 59.2604 68.3324 60.9726C63.4241 63.1483 60.0002 68.0632 60.0002 73.7778H63.0156C63.0156 68.0446 67.4078 63.3373 73.0109 62.8371C73.3357 62.8712 73.6657 62.8887 74 62.8887C74.3344 62.8887 74.6645 62.8712 74.9893 62.8371C80.5925 63.3372 84.9848 68.0445 84.9848 73.7778H88.0002C88.0002 68.0631 84.5762 63.1481 79.6678 60.9725Z" fill="white"/>
</svg>
