<svg width="120" height="120" viewBox="0 0 120 120" fill="none" xmlns="http://www.w3.org/2000/svg">
<circle cx="60" cy="60" r="60" fill="#3C76EE"/>
<g clip-path="url(#clip0)">
<path d="M69.0173 31.3408C68.7468 31.0558 68.3759 30.8848 67.9914 30.8848H44.9756C40.7286 30.8848 37.2229 34.3765 37.2229 38.623V82.1462C37.2229 86.3932 40.7286 89.8849 44.9756 89.8849H76.2141C80.4611 89.8849 83.9667 86.3932 83.9667 82.1462V47.587C83.9667 47.2166 83.7957 46.8605 83.5535 46.5895L69.0173 31.3408ZM69.4305 35.9155L79.1642 46.1335H72.8367C70.9556 46.1335 69.4305 44.6229 69.4305 42.7418V35.9155ZM76.2141 87.0346H44.9756C42.3108 87.0346 40.0732 84.8258 40.0732 82.1462V38.623C40.0732 35.9582 42.2964 33.735 44.9756 33.735H66.5803V42.7418C66.5803 46.2047 69.3738 48.9838 72.8367 48.9838H81.1165V82.1462C81.1165 84.8258 78.8933 87.0346 76.2141 87.0346Z" fill="white"/>
<path d="M72.3235 77.2012H48.866C48.0824 77.2012 47.4409 77.8422 47.4409 78.6263C47.4409 79.41 48.0824 80.0514 48.866 80.0514H72.3379C73.1216 80.0514 73.763 79.41 73.763 78.6263C73.763 77.8422 73.1216 77.2012 72.3235 77.2012Z" fill="white"/>
<path d="M56.3054 62.0951H56.3194C57.5591 62.0951 58.742 61.7247 59.7683 61.0693L64.799 66.0995L62.7752 68.1233C62.2193 68.6792 62.2193 69.5768 62.7752 70.1327C63.0602 70.4177 63.4167 70.5459 63.7871 70.5459C64.1576 70.5459 64.5141 70.4037 64.799 70.1327L66.8228 68.1094L67.9198 69.2208L65.6543 71.4867C65.0984 72.0426 65.0984 72.9402 65.6543 73.4961C65.9392 73.7811 66.2953 73.9094 66.6662 73.9094C67.0367 73.9094 67.3927 73.7671 67.6781 73.4961L70.9555 70.2183C71.5114 69.6623 71.5114 68.7648 70.9555 68.2088L67.977 65.2159C67.9342 65.1592 67.8919 65.1164 67.8487 65.0737C67.8059 65.0309 67.7492 64.9881 67.7065 64.9454L61.7921 59.0171C63.3451 56.5229 63.0318 53.1883 60.8658 51.0218C58.3432 48.4997 54.2389 48.4853 51.7307 51.0078C50.5194 52.2191 49.8496 53.8437 49.8496 55.5682C49.8496 57.2926 50.5334 58.9316 51.7447 60.1573C52.956 61.397 54.581 62.0951 56.3054 62.0951ZM53.7401 53.0312C54.4383 52.333 55.3503 51.9909 56.2766 51.9909C57.203 51.9909 58.1438 52.3474 58.842 53.06C60.2527 54.4707 60.2671 56.7795 58.8564 58.1902C58.1861 58.8604 57.2885 59.2593 56.3194 59.2593H56.3054C55.3363 59.2593 54.4239 58.8604 53.7401 58.1618C53.0559 57.4781 52.6711 56.5517 52.6711 55.597C52.6855 54.6134 53.0559 53.701 53.7401 53.0312Z" fill="white"/>
</g>
<defs>
<clipPath id="clip0">
<rect width="59" height="59" fill="white" transform="translate(31 31)"/>
</clipPath>
</defs>
</svg>
