<svg width="48" height="48" viewBox="0 0 48 48" fill="none" xmlns="http://www.w3.org/2000/svg">
<path d="M43.7812 1.5H4.21875C1.89258 1.5 0 3.39258 0 5.71875V33.8438C0 36.1699 1.89258 38.0625 4.21875 38.0625H16.4238L14.5488 43.6875H9.9375C9.16077 43.6875 8.53125 44.317 8.53125 45.0938C8.53125 45.8705 9.16077 46.5 9.9375 46.5H38.0625C38.8392 46.5 39.4688 45.8705 39.4688 45.0938C39.4688 44.317 38.8392 43.6875 38.0625 43.6875H33.4512L31.5762 38.0625H43.7812C46.1074 38.0625 48 36.1699 48 33.8438V5.71875C48 3.39258 46.1074 1.5 43.7812 1.5ZM17.5137 43.6875L19.3887 38.0625H28.6113L30.4863 43.6875H17.5137ZM45.1875 33.8438C45.1875 34.619 44.5565 35.25 43.7812 35.25C39.6954 35.25 8.34705 35.25 4.21875 35.25C3.44348 35.25 2.8125 34.619 2.8125 33.8438V32.4375H45.1875V33.8438ZM15.3354 21.5427L14.0563 20.2639L16.0448 18.275L17.324 19.5542C17.7773 20.0076 18.4801 20.0969 19.0327 19.771C19.823 19.3052 20.6667 18.954 21.5402 18.7277C22.1605 18.5673 22.5938 18.0073 22.5938 17.3665V15.5625H25.4062V17.3665C25.4062 18.0073 25.8395 18.5673 26.4598 18.7277C27.3329 18.954 28.1766 19.3052 28.9669 19.7714C29.5195 20.0969 30.2223 20.0076 30.6757 19.5542L31.9548 18.275L33.9437 20.2639L32.6646 21.5431C32.2112 21.9965 32.1218 22.6992 32.4478 23.2515C32.9139 24.0421 33.2648 24.8859 33.4911 25.7589C33.6515 26.3793 34.2114 26.8125 34.8523 26.8125H36.6562V29.625H30.8892C30.9829 29.1643 31.0312 28.693 31.0312 28.2188C31.0312 24.3417 27.8771 21.1875 24 21.1875C20.1229 21.1875 16.9688 24.3417 16.9688 28.2188C16.9688 28.693 17.0171 29.1643 17.1108 29.625H11.3438V26.8125H13.1477C13.7886 26.8125 14.3485 26.3793 14.5093 25.7589C14.7352 24.8859 15.0864 24.0421 15.5522 23.2515C15.8778 22.6992 15.7888 21.9965 15.3354 21.5427ZM28.2188 28.2188C28.2188 28.7003 28.1353 29.176 27.9771 29.625H20.0229C19.8647 29.176 19.7812 28.7003 19.7812 28.2188C19.7812 25.8926 21.6738 24 24 24C26.3262 24 28.2188 25.8926 28.2188 28.2188ZM45.1875 29.625H39.4688V25.4062C39.4688 24.6295 38.8392 24 38.0625 24H35.8901C35.7444 23.5913 35.577 23.1896 35.3888 22.7959L36.9269 21.2582C37.4758 20.7089 37.4758 19.8186 36.9265 19.2693L32.9491 15.2919C32.6854 15.0282 32.3276 14.8802 31.9548 14.8802C31.582 14.8802 31.2242 15.0282 30.9606 15.2919L29.4229 16.83C29.0292 16.6417 28.6274 16.4744 28.2188 16.329V14.1562C28.2188 13.3795 27.5892 12.75 26.8125 12.75H21.1875C20.4108 12.75 19.7812 13.3795 19.7812 14.1562V16.329C19.3726 16.4744 18.9708 16.6417 18.5771 16.83L17.0394 15.2919C16.7758 15.0282 16.418 14.8802 16.0452 14.8802C15.672 14.8802 15.3146 15.0282 15.0505 15.2919L11.0735 19.2693C10.5242 19.8186 10.5242 20.7089 11.0735 21.2582L12.6112 22.7963C12.423 23.1896 12.256 23.5913 12.1102 24H9.9375C9.16077 24 8.53125 24.6299 8.53125 25.4062V29.625H2.8125V5.71875C2.8125 4.94348 3.44348 4.3125 4.21875 4.3125H43.7812C44.5565 4.3125 45.1875 4.94348 45.1875 5.71875V29.625Z" fill="black"/>
<path d="M38.0625 7.125C35.7363 7.125 33.8438 9.01758 33.8438 11.3438C33.8438 13.6699 35.7363 15.5625 38.0625 15.5625C40.3887 15.5625 42.2812 13.6699 42.2812 11.3438C42.2812 9.01758 40.3887 7.125 38.0625 7.125ZM38.0625 12.75C37.2872 12.75 36.6562 12.119 36.6562 11.3438C36.6562 10.5685 37.2872 9.9375 38.0625 9.9375C38.8378 9.9375 39.4688 10.5685 39.4688 11.3438C39.4688 12.119 38.8378 12.75 38.0625 12.75Z" fill="black"/>
</svg>
