<svg width="64" height="64" viewBox="0 0 64 64" fill="none" xmlns="http://www.w3.org/2000/svg">
<path fill-rule="evenodd" clip-rule="evenodd" d="M3 3H61V61H3V3ZM0 3C0 1.34315 1.34315 0 3 0H61C62.6569 0 64 1.34315 64 3V61C64 62.6569 62.6569 64 61 64H3C1.34315 64 0 62.6569 0 61V3ZM43 11H53V21H43V11ZM40 11C40 9.34315 41.3431 8 43 8H53C54.6569 8 56 9.34315 56 11V21C56 22.6569 54.6569 24 53 24H43C41.3431 24 40 22.6569 40 21V11ZM34 12H10V9H34V12ZM10 19H34V16H10V19ZM34 26H10V23H34V26ZM10 33H25V30H10V33Z" fill="#111111"/>
</svg>
